<svg xmlns="http://www.w3.org/2000/svg" xmlns:xlink="http://www.w3.org/1999/xlink" viewBox="0 0 454.09 146.72"><defs><style>.cls-1,.cls-10,.cls-14,.cls-15,.cls-9{fill:none;}.cls-1,.cls-10,.cls-2,.cls-9{stroke:#c6c6c5;stroke-width:2px;}.cls-1,.cls-10,.cls-13,.cls-14,.cls-15,.cls-2,.cls-9{stroke-linecap:round;stroke-linejoin:round;}.cls-2{fill:#b1b1b1;}.cls-3{font-size:14px;fill:#433e8f;font-family:Montserrat-Bold, Montserrat;font-weight:700;}.cls-4{letter-spacing:-0.06em;}.cls-5{letter-spacing:0.01em;}.cls-6{letter-spacing:-0.01em;}.cls-7{letter-spacing:-0.01em;}.cls-8{letter-spacing:0em;}.cls-9{stroke-dasharray:4.11 4.8;}.cls-10{stroke-dasharray:6.09 7.11;}.cls-11,.cls-12,.cls-13{fill:#fff;}.cls-11,.cls-13{stroke:#fff;}.cls-11{stroke-miterlimit:10;stroke-width:5.12px;}.cls-13{stroke-width:7.68px;}.cls-14{stroke-width:2.56px;stroke:url(#New_Gradient_Swatch_2);}.cls-15{stroke-width:3px;stroke:url(#New_Gradient_Swatch_2-2);}.cls-16{fill:url(#New_Gradient_Swatch_3);}.cls-17{fill:url(#New_Gradient_Swatch_3-2);}</style><linearGradient id="New_Gradient_Swatch_2" x1="187.19" y1="67.05" x2="224.42" y2="104.28" gradientUnits="userSpaceOnUse"><stop offset="0" stop-color="#00ade6"/><stop offset="0.06" stop-color="#00a3de"/><stop offset="0.25" stop-color="#0083c5"/><stop offset="0.36" stop-color="#0077bc"/><stop offset="0.73" stop-color="#353579"/><stop offset="0.97" stop-color="#1d1a55"/></linearGradient><linearGradient id="New_Gradient_Swatch_2-2" x1="195.98" y1="57.96" x2="252.33" y2="114.31" xlink:href="#New_Gradient_Swatch_2"/><linearGradient id="New_Gradient_Swatch_3" x1="239.51" y1="45.86" x2="249.36" y2="55.7" gradientUnits="userSpaceOnUse"><stop offset="0" stop-color="#ffee25"/><stop offset="0.37" stop-color="#f08f34"/><stop offset="1" stop-color="#e2312d"/></linearGradient><linearGradient id="New_Gradient_Swatch_3-2" x1="201.18" y1="45.84" x2="210.43" y2="55.08" xlink:href="#New_Gradient_Swatch_3"/></defs><title>four_ut</title><g id="Orange-3" data-name="Orange"><polyline class="cls-1" points="214.89 14.95 227.05 27.1 239.19 14.95"/><line class="cls-2" x1="227.27" y1="3.83" x2="227.27" y2="25.37"/><text class="cls-3" transform="translate(178.93 138.62)"><tspan class="cls-4">Y</tspan><tspan x="8.62" y="0">our </tspan><tspan class="cls-5" x="37.41" y="0">n</tspan><tspan x="47.17" y="0">e</tspan><tspan class="cls-6" x="56" y="0">t</tspan><tspan class="cls-7" x="61.95" y="0">w</tspan><tspan x="74.86" y="0">o</tspan><tspan class="cls-8" x="84.03" y="0">r</tspan><tspan x="90.01" y="0">k</tspan></text><line class="cls-1" x1="108.29" y1="53.91" x2="108.29" y2="50.91"/><line class="cls-9" x1="108.29" y1="46.12" x2="108.29" y2="39.61"/><polyline class="cls-1" points="108.29 37.21 108.29 34.21 111.29 34.21"/><line class="cls-10" x1="118.4" y1="34.21" x2="339.24" y2="34.21"/><polyline class="cls-1" points="342.79 34.21 345.79 34.21 345.79 37.21"/><line class="cls-9" x1="345.79" y1="42.01" x2="345.79" y2="48.52"/><line class="cls-1" x1="345.79" y1="50.91" x2="345.79" y2="53.91"/><circle class="cls-11" cx="244.43" cy="50.78" r="6.96"/><path class="cls-11" d="M247.43,117.1a4.35,4.35,0,0,1-3.08-1.28,4.32,4.32,0,0,1-3.07,1.28,4.37,4.37,0,0,1-4.36-4.36V94.67h-5.45a1.28,1.28,0,0,1-1-.51,1.26,1.26,0,0,1-.22-1.11l2.19-7.91a4,4,0,0,1-1.61-.12,4.14,4.14,0,0,1-2.88-5.1l4.53-15.15c.39-1.36,2.07-5.85,7.19-5.85h9.4c5.13,0,6.81,4.49,7.2,5.87l4.52,15.1A4.16,4.16,0,0,1,257.9,85a4.05,4.05,0,0,1-1.62.12l2.19,7.91a1.26,1.26,0,0,1-.21,1.11,1.28,1.28,0,0,1-1,.51h-5.46v18.07A4.36,4.36,0,0,1,247.43,117.1Z"/><path class="cls-12" d="M205.81,58.35a7.89,7.89,0,1,1,7.89-7.89A7.9,7.9,0,0,1,205.81,58.35Z"/><path class="cls-12" d="M205.81,43.92a6.54,6.54,0,1,1-6.54,6.54,6.54,6.54,0,0,1,6.54-6.54m0-2.7a9.24,9.24,0,1,0,9.24,9.24,9.25,9.25,0,0,0-9.24-9.24Z"/><path class="cls-13" d="M205.81,86.46v25.63a3.73,3.73,0,1,1-7.45,0V68.36m15.75,18.1c2.1,0,5.06-1.46,5.06-6.12V66.09c0-3.66-2.59-5.59-5.83-5.59H198.28c-3.24,0-5.84,1.93-5.84,5.59V80.34c0,4.66,3,6.12,5.07,6.12m8.3,25.63a3.73,3.73,0,1,0,7.45,0V68.36"/><rect class="cls-12" x="200.37" y="73.04" width="11.31" height="27.52"/><path class="cls-14" d="M205.81,86.46v25.63a3.73,3.73,0,1,1-7.45,0V68.36m15.75,18.1c2.1,0,5.06-1.46,5.06-6.12V66.09c0-3.66-2.59-5.59-5.83-5.59H198.28c-3.24,0-5.84,1.93-5.84,5.59V80.34c0,4.66,3,6.12,5.07,6.12m8.3,25.63a3.73,3.73,0,1,0,7.45,0V68.36"/><path class="cls-15" d="M234.67,81.8a2.86,2.86,0,0,1-5.51-1.54l4.53-15.12c.5-1.78,2.06-4.94,6-4.94h4.7m-9.8,22.08,3.18-11.49-6.26,22.6h6.73v19.35a3.08,3.08,0,1,0,6.15,0V91.65M254,81.8a2.86,2.86,0,0,0,5.51-1.54L255,65.14c-.51-1.78-2.07-4.94-6-4.94h-4.69m0,52.54a3.08,3.08,0,1,0,6.15,0V93.39h6.74L251,70.79l3.18,11.49m-48.35,4.18v25.63a3.73,3.73,0,1,1-7.45,0V68.36m15.75,18.1c2.1,0,5.06-1.46,5.06-6.12V66.09c0-3.66-2.59-5.59-5.83-5.59H198.28c-3.24,0-5.84,1.93-5.84,5.59V80.34c0,4.66,3,6.12,5.07,6.12m8.3,25.63a3.73,3.73,0,1,0,7.45,0V68.36"/><circle class="cls-16" cx="244.43" cy="50.78" r="6.96"/><circle class="cls-17" cx="205.81" cy="50.46" r="6.54"/></g></svg>