<svg xmlns="http://www.w3.org/2000/svg" xmlns:xlink="http://www.w3.org/1999/xlink" viewBox="0 0 454.09 145.95"><defs><style>.cls-1,.cls-12,.cls-21{fill:none;stroke-linecap:round;}.cls-1,.cls-21{stroke-miterlimit:10;stroke-width:3px;}.cls-1{stroke:url(#New_Gradient_Swatch_2);}.cls-2{fill:#f5a634;}.cls-3{fill:#e63a2e;}.cls-4{fill:url(#linear-gradient);}.cls-5{fill:url(#linear-gradient-2);}.cls-6{fill:#1c9ad7;}.cls-7{fill:#0768b0;}.cls-8{fill:#e01581;}.cls-9{fill:#75c9f1;}.cls-10{fill:#922080;}.cls-11,.cls-13{fill:#433e8f;}.cls-12{stroke:#c6c6c5;stroke-linejoin:round;stroke-width:2px;}.cls-13{font-size:14px;font-family:Montserrat-Bold, Montserrat;font-weight:700;}.cls-14{letter-spacing:-0.06em;}.cls-15{letter-spacing:0em;}.cls-16{letter-spacing:0.01em;}.cls-17{letter-spacing:-0.01em;}.cls-18{letter-spacing:-0.01em;}.cls-19{letter-spacing:-0.02em;}.cls-20{fill:url(#New_Gradient_Swatch_3);}.cls-21{stroke:url(#linear-gradient-3);}.cls-22{fill:url(#New_Gradient_Swatch_3-2);}</style><linearGradient id="New_Gradient_Swatch_2" x1="297.13" y1="33.57" x2="336.72" y2="73.15" gradientUnits="userSpaceOnUse"><stop offset="0" stop-color="#00ade6"/><stop offset="0.06" stop-color="#00a3de"/><stop offset="0.25" stop-color="#0083c5"/><stop offset="0.36" stop-color="#0077bc"/><stop offset="0.73" stop-color="#353579"/><stop offset="0.97" stop-color="#1d1a55"/></linearGradient><linearGradient id="linear-gradient" x1="354.2" y1="47.32" x2="372.56" y2="47.32" gradientUnits="userSpaceOnUse"><stop offset="0" stop-color="#525252"/><stop offset="0.07" stop-color="#787878"/><stop offset="0.15" stop-color="#9c9c9c"/><stop offset="0.24" stop-color="#bbb"/><stop offset="0.33" stop-color="#d4d4d4"/><stop offset="0.44" stop-color="#e7e7e7"/><stop offset="0.56" stop-color="#f5f5f5"/><stop offset="0.71" stop-color="#fdfdfd"/><stop offset="1" stop-color="#fff"/></linearGradient><linearGradient id="linear-gradient-2" x1="354.2" y1="58.13" x2="354.2" y2="40.84" xlink:href="#linear-gradient"/><linearGradient id="New_Gradient_Swatch_3" x1="243.25" y1="61.93" x2="258.11" y2="76.78" gradientUnits="userSpaceOnUse"><stop offset="0" stop-color="#ffee25"/><stop offset="0.37" stop-color="#f08f34"/><stop offset="1" stop-color="#e2312d"/></linearGradient><linearGradient id="linear-gradient-3" x1="184.21" y1="7.96" x2="270.71" y2="94.45" xlink:href="#New_Gradient_Swatch_2"/><linearGradient id="New_Gradient_Swatch_3-2" x1="254.13" y1="17.05" x2="267.14" y2="30.06" xlink:href="#New_Gradient_Swatch_3"/></defs><title>second_ut</title><g id="Orange-3" data-name="Orange"><path class="cls-1" d="M279.3,53.52h27.88M341,64.43V42a5.69,5.69,0,0,0-5.67-5.67H312.85A5.69,5.69,0,0,0,307.18,42V64.43a5.68,5.68,0,0,0,5.67,5.67h22.46A5.68,5.68,0,0,0,341,64.43Z"/><path class="cls-2" d="M380.31,58.31h13.58c3.86,0-.74,2.06-.74-1.42v1l1.57,1.53,1.12.6c.82-.17-.18,1.25.56,2.21.48.61,2.27,2.17,2.36,2.32H389.2C385.35,64.6,380.31,61.78,380.31,58.31Z"/><path class="cls-3" d="M396.06,59.48l.42.71c.82-.17.51,1.14,1.26,2.1a24.32,24.32,0,0,1,1.35,2.3l-.18,0c-1.33-.08-12.26.39-14.57-6.3h10.89"/><path class="cls-4" d="M370.4,42.49a6.47,6.47,0,0,0-4.32-1.65H354.2v6.48h11.88a6.48,6.48,0,0,1,6.48,6.48V47.32A6.45,6.45,0,0,0,370.4,42.49Z"/><path class="cls-5" d="M354.2,58.13V47.32a6.48,6.48,0,0,1,6.48-6.48H354.2a6.48,6.48,0,0,0-6.48,6.48v4.32A6.49,6.49,0,0,0,354.2,58.13Z"/><path class="cls-6" d="M370.4,42.49a6.47,6.47,0,0,0-4.32-1.65H354.2v6.48h11.88s6.48,7,6.48,10.61V47.32A6.45,6.45,0,0,0,370.4,42.49Z"/><path class="cls-7" d="M354.2,58.13V47.29l6.94-6.45H354.2a6.48,6.48,0,0,0-6.48,6.48v4.32C347.72,55.22,349.16,58.13,354.2,58.13Z"/><path class="cls-8" d="M388.06,40.7l11,23.89h0a11.41,11.41,0,0,1-9.7-6.32l-5.27-11.38a4.35,4.35,0,0,1,3.93-6.19Z"/><path class="cls-9" d="M366.08,47.32V58.1c0,4.2-6.27,6.51-9.85,6.51h9.85a6.48,6.48,0,0,0,6.48-6.48V53.8Z"/><path class="cls-10" d="M388.12,40.7a12,12,0,0,0-11.44,7.93c-4.45,10.89-7.36,16-18.32,16h10.27c5.57,0,8.9-2,12-8.19C383.62,50.62,384,44.34,388.12,40.7Z"/><path class="cls-11" d="M347.72,56.84a7.41,7.41,0,0,0,6.51,7.77h5c3.63,0,6.82-3.67,6.82-6.48H354.2s-6.48-7.49-6.48-7.49"/><line class="cls-12" x1="226.96" y1="113.1" x2="226.96" y2="135.64"/><polyline class="cls-12" points="214.59 124.5 226.74 136.65 238.88 124.5"/><text class="cls-13" transform="translate(149.39 105.21)"><tspan class="cls-14">Y</tspan><tspan x="8.62" y="0">our boo</tspan><tspan class="cls-15" x="65.41" y="0">k</tspan><tspan x="74.59" y="0">i</tspan><tspan class="cls-16" x="78.81" y="0">n</tspan><tspan x="88.56" y="0">g </tspan><tspan class="cls-17" x="102.33" y="0">s</tspan><tspan class="cls-18" x="109.62" y="0">y</tspan><tspan x="117.88" y="0">s</tspan><tspan class="cls-19" x="125.31" y="0">t</tspan><tspan x="131.17" y="0">em</tspan></text><rect class="cls-20" x="238.84" y="66.35" width="23.69" height="6.02"/><path class="cls-21" d="M228,16.61H275.7A3,3,0,0,1,279,19.33V83.08a3,3,0,0,1-3.28,2.72H179.22a3,3,0,0,1-3.28-2.72V19.33a3,3,0,0,1,3.28-2.72H228M177.49,29.7H278.3M190.41,47.31h3m-3,11.4h3m-3,11.39h3m6.36-22.79h26.31m-26.31,11.4h26.31M199.75,70.1h26.31M266.4,56.91V50.16A4.2,4.2,0,0,0,262.21,46H238.9a4.2,4.2,0,0,0-4.19,4.19v6.75a4.21,4.21,0,0,0,4.19,4.19h23.31A4.2,4.2,0,0,0,266.4,56.91Z"/><path class="cls-22" d="M266.4,23.55a3,3,0,1,1,3,3A3,3,0,0,1,266.4,23.55Zm-5.25,3a3,3,0,1,0-3-3A3,3,0,0,0,261.15,26.55Zm-9.28,0a3,3,0,1,0-3-3A3,3,0,0,0,251.87,26.55Z"/></g></svg>