<svg xmlns="http://www.w3.org/2000/svg" xmlns:xlink="http://www.w3.org/1999/xlink" viewBox="0 0 454.09 145.95"><defs><style>.cls-1,.cls-20,.cls-28,.cls-30{fill:none;stroke-linecap:round;}.cls-1,.cls-2,.cls-28,.cls-30{stroke-miterlimit:10;}.cls-1,.cls-28,.cls-30{stroke-width:3px;}.cls-1{stroke:url(#linear-gradient);}.cls-2{fill:#fffffc;stroke:#cac9c8;stroke-width:0.92px;}.cls-3{font-size:10px;}.cls-19,.cls-21,.cls-3{fill:#433e8f;}.cls-21,.cls-3{font-family:Montserrat-Bold, Montserrat;font-weight:700;}.cls-4{letter-spacing:0.01em;}.cls-5{letter-spacing:-0.01em;}.cls-6{letter-spacing:0em;}.cls-7{letter-spacing:-0.01em;}.cls-8{letter-spacing:-0.01em;}.cls-9{letter-spacing:-0.02em;}.cls-10{fill:#f5a634;}.cls-11{fill:#e63a2e;}.cls-12{fill:url(#linear-gradient-2);}.cls-13{fill:url(#linear-gradient-3);}.cls-14{fill:#1c9ad7;}.cls-15{fill:#0768b0;}.cls-16{fill:#e01581;}.cls-17{fill:#75c9f1;}.cls-18{fill:#922080;}.cls-20{stroke:#c6c6c5;stroke-linejoin:round;stroke-width:2px;}.cls-21{font-size:14px;}.cls-22{letter-spacing:-0.06em;}.cls-23{letter-spacing:0em;}.cls-24{letter-spacing:0.01em;}.cls-25{letter-spacing:-0.01em;}.cls-26{letter-spacing:-0.01em;}.cls-27{letter-spacing:-0.02em;}.cls-28{stroke:url(#New_Gradient_Swatch_2);}.cls-29{fill:url(#New_Gradient_Swatch_3);}.cls-30{stroke:url(#linear-gradient-4);}.cls-31{fill:url(#New_Gradient_Swatch_3-2);}</style><linearGradient id="linear-gradient" x1="-788.76" y1="-809.76" x2="-803.57" y2="-824.57" gradientTransform="translate(-493.65 841.67) rotate(90)" gradientUnits="userSpaceOnUse"><stop offset="0" stop-color="#f6a633"/><stop offset="0.89" stop-color="#e8452f"/><stop offset="1" stop-color="#e6392f"/></linearGradient><linearGradient id="linear-gradient-2" x1="354.97" y1="41.9" x2="373.34" y2="41.9" gradientUnits="userSpaceOnUse"><stop offset="0" stop-color="#525252"/><stop offset="0.07" stop-color="#787878"/><stop offset="0.15" stop-color="#9c9c9c"/><stop offset="0.24" stop-color="#bbb"/><stop offset="0.33" stop-color="#d4d4d4"/><stop offset="0.44" stop-color="#e7e7e7"/><stop offset="0.56" stop-color="#f5f5f5"/><stop offset="0.71" stop-color="#fdfdfd"/><stop offset="1" stop-color="#fff"/></linearGradient><linearGradient id="linear-gradient-3" x1="354.97" y1="52.7" x2="354.97" y2="35.41" xlink:href="#linear-gradient-2"/><linearGradient id="New_Gradient_Swatch_2" x1="296.45" y1="28.15" x2="336.03" y2="67.73" gradientUnits="userSpaceOnUse"><stop offset="0" stop-color="#00ade6"/><stop offset="0.06" stop-color="#00a3de"/><stop offset="0.25" stop-color="#0083c5"/><stop offset="0.36" stop-color="#0077bc"/><stop offset="0.73" stop-color="#353579"/><stop offset="0.97" stop-color="#1d1a55"/></linearGradient><linearGradient id="New_Gradient_Swatch_3" x1="242.56" y1="56.5" x2="257.42" y2="71.36" gradientUnits="userSpaceOnUse"><stop offset="0" stop-color="#ffee25"/><stop offset="0.37" stop-color="#f08f34"/><stop offset="1" stop-color="#e2312d"/></linearGradient><linearGradient id="linear-gradient-4" x1="183.52" y1="2.53" x2="270.02" y2="89.03" xlink:href="#New_Gradient_Swatch_2"/><linearGradient id="New_Gradient_Swatch_3-2" x1="216.54" y1="66.47" x2="229.55" y2="79.48" xlink:href="#New_Gradient_Swatch_3"/></defs><title>second_t</title><g id="Orange-3" data-name="Orange"><polyline class="cls-1" points="314.44 49.13 319.89 54.57 332.58 41.88"/><polygon class="cls-2" points="133.41 21.13 155.76 46.23 133.41 72.32 46.22 72.32 46.22 21.13 133.41 21.13"/><text class="cls-3" transform="translate(67.59 39.33)">W<tspan class="cls-4" x="11.63" y="0">h</tspan><tspan x="18.6" y="0">en </tspan><tspan class="cls-5" x="34.65" y="0">y</tspan><tspan x="40.48" y="0">our</tspan><tspan x="-12.78" y="11">boo</tspan><tspan class="cls-6" x="7.22" y="11">k</tspan><tspan x="13.78" y="11">i</tspan><tspan class="cls-4" x="16.79" y="11">n</tspan><tspan x="23.76" y="11">g </tspan><tspan class="cls-7" x="33.59" y="11">s</tspan><tspan class="cls-8" x="38.8" y="11">y</tspan><tspan x="44.7" y="11">s</tspan><tspan class="cls-9" x="50.01" y="11">t</tspan><tspan x="54.19" y="11">em </tspan><tspan x="10.19" y="22">is open</tspan></text><path class="cls-10" d="M381.08,52.88h13.59c3.85,0-.75,2.06-.75-1.41v1l1.58,1.54,1.12.59c.82-.17-.19,1.25.56,2.21.47.61,2.26,2.17,2.35,2.32H390C386.13,59.17,381.08,56.36,381.08,52.88Z"/><path class="cls-11" d="M396.83,54.05l.43.71c.82-.17.51,1.14,1.25,2.11a24.92,24.92,0,0,1,1.36,2.3l-.19,0c-1.33-.08-12.25.39-14.56-6.3H396"/><path class="cls-12" d="M371.18,37.07a6.45,6.45,0,0,0-4.32-1.66H355V41.9h11.89a6.48,6.48,0,0,1,6.48,6.48V41.9A6.47,6.47,0,0,0,371.18,37.07Z"/><path class="cls-13" d="M355,52.7V41.9a6.5,6.5,0,0,1,6.49-6.49H355a6.5,6.5,0,0,0-6.48,6.49v4.32A6.48,6.48,0,0,0,355,52.7Z"/><path class="cls-14" d="M371.18,37.07a6.45,6.45,0,0,0-4.32-1.66H355V41.9h11.89s6.48,7,6.48,10.6V41.9A6.47,6.47,0,0,0,371.18,37.07Z"/><path class="cls-15" d="M355,52.7V41.86s6.94-6.45,6.94-6.44,0,0,0,0H355a6.5,6.5,0,0,0-6.48,6.49v4.32C348.49,49.8,349.94,52.7,355,52.7Z"/><path class="cls-16" d="M388.84,35.27l11,23.89h0a11.37,11.37,0,0,1-9.69-6.32l-5.27-11.38a4.35,4.35,0,0,1,3.93-6.19Z"/><path class="cls-17" d="M366.86,41.9V52.67c0,4.2-6.28,6.51-9.86,6.51h9.86a6.48,6.48,0,0,0,6.48-6.48V48.38S366.86,41.89,366.86,41.9Z"/><path class="cls-18" d="M388.89,35.27a12,12,0,0,0-11.44,7.93c-4.45,10.9-7.36,16-18.32,16h10.28c5.57,0,8.89-2,12-8.19C384.4,45.2,384.75,38.91,388.89,35.27Z"/><path class="cls-19" d="M348.5,51.42a7.41,7.41,0,0,0,6.5,7.76h5c3.64,0,6.82-3.67,6.82-6.48H355l-6.48-7.48"/><line class="cls-20" x1="227.73" y1="109.22" x2="227.73" y2="133.75"/><polyline class="cls-20" points="215.36 122.61 227.51 134.76 239.66 122.62"/><line class="cls-20" x1="124.01" y1="109.67" x2="100.18" y2="133.5"/><polyline class="cls-20" points="99.31 116.87 99.31 134.06 116.49 134.06"/><line class="cls-20" x1="184.45" y1="109.67" x2="160.63" y2="133.5"/><polyline class="cls-20" points="159.75 116.87 159.75 134.06 176.93 134.06"/><line class="cls-20" x1="329.88" y1="109.67" x2="353.39" y2="133.18"/><polyline class="cls-20" points="336.76 134.06 353.95 134.06 353.95 116.88"/><line class="cls-20" x1="270.2" y1="109.67" x2="293.71" y2="133.18"/><polyline class="cls-20" points="277.09 134.06 294.27 134.06 294.27 116.88"/><text class="cls-21" transform="translate(150.17 99.79)"><tspan class="cls-22">Y</tspan><tspan x="8.62" y="0">our boo</tspan><tspan class="cls-23" x="65.41" y="0">k</tspan><tspan x="74.59" y="0">i</tspan><tspan class="cls-24" x="78.81" y="0">n</tspan><tspan x="88.56" y="0">g </tspan><tspan class="cls-25" x="102.33" y="0">s</tspan><tspan class="cls-26" x="109.62" y="0">y</tspan><tspan x="117.88" y="0">s</tspan><tspan class="cls-27" x="125.31" y="0">t</tspan><tspan x="131.17" y="0">em</tspan></text><path class="cls-28" d="M278.62,48.1h27.87M340.29,59V36.55a5.68,5.68,0,0,0-5.67-5.67H312.16a5.68,5.68,0,0,0-5.67,5.67V59a5.68,5.68,0,0,0,5.67,5.67h22.46A5.68,5.68,0,0,0,340.29,59Z"/><rect class="cls-29" x="238.15" y="60.92" width="23.69" height="6.02"/><path class="cls-30" d="M227.26,11.18H275a3,3,0,0,1,3.28,2.72V77.66A3,3,0,0,1,275,80.37H178.53a3,3,0,0,1-3.28-2.71V13.9a3,3,0,0,1,3.28-2.72h48.73M176.8,24.27H277.62m-87.9,17.61h3m-3,11.4h3m-3,11.4h3m6.36-22.8h26.31m-26.31,11.4h26.31m-26.31,11.4h26.31m40.34-13.2V44.73a4.2,4.2,0,0,0-4.19-4.19H238.21A4.21,4.21,0,0,0,234,44.73v6.75a4.2,4.2,0,0,0,4.19,4.19h23.31A4.2,4.2,0,0,0,265.71,51.48Z"/><path class="cls-31" d="M228.81,73a3,3,0,1,1,3,3A3,3,0,0,1,228.81,73Zm-5.25,3a3,3,0,1,0-3-3A3,3,0,0,0,223.56,76Zm-9.28,0a3,3,0,1,0-3-3A3,3,0,0,0,214.28,76Z"/></g></svg>