<svg xmlns="http://www.w3.org/2000/svg" xmlns:xlink="http://www.w3.org/1999/xlink" viewBox="0 0 454.09 145.95"><defs><style>.cls-1,.cls-10,.cls-7,.cls-9{fill:none;}.cls-1,.cls-2,.cls-7{stroke:#c6c6c5;stroke-linejoin:round;stroke-width:2px;}.cls-1,.cls-10,.cls-2,.cls-7,.cls-9{stroke-linecap:round;}.cls-2{fill:#b1b1b1;}.cls-3{font-size:14px;fill:#433e8f;font-family:Montserrat-Bold, Montserrat;font-weight:700;}.cls-4{letter-spacing:-0.06em;}.cls-5{letter-spacing:-0.01em;}.cls-6{letter-spacing:-0.02em;}.cls-7{stroke-dasharray:6.09 7.1;}.cls-8{fill:#fff;}.cls-10,.cls-9{stroke-miterlimit:10;stroke-width:3px;}.cls-9{stroke:url(#linear-gradient);}.cls-10{stroke:url(#linear-gradient-2);}.cls-11{fill:url(#New_Gradient_Swatch_3);}</style><linearGradient id="linear-gradient" x1="199.97" y1="65.42" x2="215.04" y2="80.49" gradientUnits="userSpaceOnUse"><stop offset="0" stop-color="#ffee25"/><stop offset="0.37" stop-color="#f08f34"/><stop offset="1" stop-color="#e2312d"/></linearGradient><linearGradient id="linear-gradient-2" x1="180.97" y1="18.75" x2="273.12" y2="110.91" gradientUnits="userSpaceOnUse"><stop offset="0" stop-color="#00ade6"/><stop offset="0.06" stop-color="#00a3de"/><stop offset="0.25" stop-color="#0083c5"/><stop offset="0.36" stop-color="#0077bc"/><stop offset="0.73" stop-color="#353579"/><stop offset="0.97" stop-color="#1d1a55"/></linearGradient><linearGradient id="New_Gradient_Swatch_3" x1="253.72" y1="25.29" x2="266.73" y2="38.3" xlink:href="#linear-gradient"/></defs><title>third_ut</title><g id="Orange-3" data-name="Orange"><polyline class="cls-1" points="214.89 78.46 227.05 90.61 239.19 78.46"/><line class="cls-2" x1="227.27" y1="67.34" x2="227.27" y2="88.88"/><text class="cls-3" transform="translate(179.47 125.61)"><tspan class="cls-4">Y</tspan><tspan x="8.62" y="0">our </tspan><tspan class="cls-5" x="37.41" y="0">w</tspan><tspan x="50.32" y="0">ebsi</tspan><tspan class="cls-6" x="80.46" y="0">t</tspan><tspan x="86.31" y="0">e</tspan></text><line class="cls-1" x1="18.38" y1="36.31" x2="21.34" y2="35.87"/><polyline class="cls-7" points="28.37 34.81 227.99 4.84 429.23 35.33"/><line class="cls-1" x1="432.74" y1="35.87" x2="435.71" y2="36.31"/><rect class="cls-8" x="172.02" y="22.71" width="110.04" height="84.24" rx="5.41" ry="5.41"/><path class="cls-8" d="M276.66,25.49a2.64,2.64,0,0,1,2.62,2.63v73.42a2.64,2.64,0,0,1-2.62,2.63H177.43a2.65,2.65,0,0,1-2.63-2.63V28.12a2.65,2.65,0,0,1,2.63-2.63h99.23m0-5.56H177.43a8.2,8.2,0,0,0-8.19,8.19v73.42a8.19,8.19,0,0,0,8.19,8.19h99.23a8.2,8.2,0,0,0,8.19-8.19V28.12a8.21,8.21,0,0,0-8.19-8.19Z"/><path class="cls-9" d="M208.92,73.44l-7.62-7.18-9.67,10.12m32-6.61-6.94-6L203.55,80.14"/><path class="cls-10" d="M276.66,104.17H177.43a2.65,2.65,0,0,1-2.63-2.63V28.12a2.65,2.65,0,0,1,2.63-2.63h99.23a2.64,2.64,0,0,1,2.62,2.63v73.42A2.64,2.64,0,0,1,276.66,104.17ZM174.8,37.7H279.28M230.69,51.91h34.24m-34.24,9h34.24M230.69,70.7h34.24m-34.24,9.44h34.24M192.42,90.53h72.51m-41.29-10.8V52.79a.89.89,0,0,0-.88-.88H192.51a.89.89,0,0,0-.88.88V79.73a.89.89,0,0,0,.88.88h30.25A.89.89,0,0,0,223.64,79.73Z"/><path class="cls-11" d="M266,31.8a3,3,0,1,1,3,3A3,3,0,0,1,266,31.8Zm-5.25,3a3,3,0,1,0-3-3A3,3,0,0,0,260.74,34.8Zm-9.28,0a3,3,0,1,0-3-3A3,3,0,0,0,251.46,34.8Z"/></g></svg>